<svg xmlns="http://www.w3.org/2000/svg" width="62.33mm" height="25.6mm" viewBox="0 0 176.69 72.58"><defs><style>.cls-1,.cls-2,.cls-3,.cls-4,.cls-5,.cls-6,.cls-7,.cls-8{fill:none;stroke-width:5.44px;}.cls-1{stroke:#e2001a;}.cls-2{stroke:#e2007a;}.cls-3{stroke:#f29400;}.cls-4{stroke:#fcea0d;}.cls-5{stroke:#c9d30e;}.cls-6{stroke:#00aad3;}.cls-7{stroke:#93117e;}.cls-8{stroke:gray;}.cls-9{fill:#e8522f;}</style></defs><title>Logo-LR-LDM-2019</title><g id="Calque_2" data-name="Calque 2"><g id="Calque_1-2" data-name="Calque 1"><line class="cls-1" x1="25.72" y1="25.72" x2="25.72" y2="25.72"/><line class="cls-1" x1="25.72" y1="25.72" x2="25.72" y2="25.72"/><line class="cls-2" x1="42.09" y1="6.06" x2="25.72" y2="25.72"/><line class="cls-3" x1="51.2" y1="23.39" x2="25.72" y2="25.72"/><line class="cls-1" x1="25.72" y1="25.72" x2="25.72" y2="25.72"/><line class="cls-1" x1="25.72" y1="25.72" x2="25.72" y2="25.72"/><line class="cls-1" x1="25.72" y1="25.72" x2="25.72" y2="25.72"/><line class="cls-1" x1="25.72" y1="25.72" x2="25.72" y2="25.72"/><line class="cls-1" x1="25.72" y1="25.72" x2="25.72" y2="25.72"/><line class="cls-1" x1="25.72" y1="25.72" x2="25.72" y2="25.72"/><line class="cls-4" x1="45.38" y1="42.09" x2="25.72" y2="25.72"/><line class="cls-5" x1="28.05" y1="51.2" x2="25.72" y2="25.72"/><line class="cls-6" x1="9.36" y1="45.38" x2="25.72" y2="25.72"/><line class="cls-7" x1="25.72" y1="25.72" x2="0.25" y2="28.05"/><line class="cls-8" x1="25.72" y1="25.72" x2="6.06" y2="9.36"/><line class="cls-1" x1="23.39" y1="0.25" x2="25.72" y2="25.72"/><path class="cls-9" d="M35.36,63.72V46.12c0-.46.37-.7,1-.7s1,.24,1,.7V63.76A6.86,6.86,0,0,0,38.8,68a6.78,6.78,0,0,0,3.62,2.51q1,.18,1,1c0,.83-.33,1.17-1,1a8.6,8.6,0,0,1-5.05-3.1A8.79,8.79,0,0,1,35.36,63.72Z"/><path class="cls-9" d="M81.4,57.65a8.54,8.54,0,0,1,5.06-3.11.68.68,0,0,1,.73.22,1.19,1.19,0,0,1,.29.8c0,.56-.34.9-1,1A7.12,7.12,0,0,0,82.83,59a6.91,6.91,0,0,0-1.43,4.24v8.53c-.05.49-.38.74-1,.74s-1-.25-1-.74V63.36A8.83,8.83,0,0,1,81.4,57.65Z"/><path class="cls-9" d="M87.19,61.6A9,9,0,0,1,96,54.54a8.77,8.77,0,0,1,6.39,2.63,9,9,0,0,1,0,12.74,9,9,0,0,1-12,.68,9,9,0,0,1-3.16-5.11q-.22-1,1-1c.61,0,.93.33,1,1a7.22,7.22,0,0,0,2.58,3.66A6.86,6.86,0,0,0,96,70.57a7,7,0,1,0-6.73-9c-.15.66-.49,1-1,1Q87,62.59,87.19,61.6Z"/><path class="cls-9" d="M123.35,65.88a.92.92,0,0,1,.88-.47,1.25,1.25,0,0,1,.82.31.63.63,0,0,1,.24.75,9,9,0,0,1-14.88,3.44,9,9,0,0,1,0-12.74,9.11,9.11,0,0,1,11.62-1,8.59,8.59,0,0,1,3.26,4.29.81.81,0,0,1,0,.25c0,.54-.37.81-1.1.81a1,1,0,0,1-.92-.44,6,6,0,0,0-.18-.62,6.89,6.89,0,0,0-2.56-2.82,7,7,0,1,0-3.77,12.92,6.72,6.72,0,0,0,3.77-1.15,7.68,7.68,0,0,0,2.63-3Z"/><path class="cls-9" d="M144.73,72.55q-.91,0-1-1v-8a6.84,6.84,0,0,0-2.05-5,6.76,6.76,0,0,0-5-2.07,6.9,6.9,0,0,0-5,2.09,6.74,6.74,0,0,0-2.11,5v8q-.07,1-1,1c-.61,0-.93-.33-1-1V46.41c.05-.68.37-1,1-1s.94.34,1,1V57.1c.1.17.2.25.3.25a1,1,0,0,0,.47-.25,8.88,8.88,0,0,1,6.37-2.56,8.65,8.65,0,0,1,6.37,2.65,8.74,8.74,0,0,1,2.64,6.39v8Q145.64,72.55,144.73,72.55Z"/><path class="cls-9" d="M169.69,57.65a8.52,8.52,0,0,1,5.05-3.11.67.67,0,0,1,.73.22,1.15,1.15,0,0,1,.3.8c0,.56-.35.9-1,1A7.13,7.13,0,0,0,171.12,59a6.85,6.85,0,0,0-1.43,4.24v8.53c-.05.49-.38.74-1,.74s-1-.25-1-.74V63.36A8.83,8.83,0,0,1,169.69,57.65Z"/><path class="cls-9" d="M62.89,60.27a9.09,9.09,0,0,0-1.9-2.7,9.47,9.47,0,0,0-2.73-1.85A8,8,0,0,0,55,55a9.52,9.52,0,0,0-3.48.78,8.83,8.83,0,0,0-2.78,1.87,8.58,8.58,0,0,0-1.84,2.74,8.46,8.46,0,0,0-.67,3.38,8.55,8.55,0,0,0,.69,3.46A8.24,8.24,0,0,0,48.79,70a8.59,8.59,0,0,0,2.76,1.81,8.81,8.81,0,0,0,3.38.65,9.91,9.91,0,0,0,3.45-.56A6.8,6.8,0,0,0,61.06,70a1,1,0,0,0,0-1.44,1,1,0,0,0-1.43,0A6.85,6.85,0,0,1,57.5,70a6.51,6.51,0,0,1-2.57.51,6.62,6.62,0,0,1-2.35-.43,6.74,6.74,0,0,1-3.47-3,6.41,6.41,0,0,1-.79-2.22l0-.14H62.65a1.14,1.14,0,0,0,.74-.3.82.82,0,0,0,.28-.67,1.28,1.28,0,0,0,0-.19A9.06,9.06,0,0,0,62.89,60.27ZM48.33,62.73l0-.15a7.17,7.17,0,0,1,.8-2.17,6.75,6.75,0,0,1,1.46-1.73,7.06,7.06,0,0,1,2-1.16,6.56,6.56,0,0,1,2.34-.43,6.47,6.47,0,0,1,2.33.43,7.06,7.06,0,0,1,2,1.16,6.5,6.5,0,0,1,1.48,1.73,6.71,6.71,0,0,1,.82,2.17l0,.15Z"/><polygon class="cls-9" points="48.45 64.87 48.45 64.87 48.45 64.87 48.45 64.87"/><path class="cls-9" d="M165.64,60.27a9.09,9.09,0,0,0-1.9-2.7A9.47,9.47,0,0,0,161,55.72a8,8,0,0,0-3.26-.68,9.52,9.52,0,0,0-3.48.78,8.83,8.83,0,0,0-2.78,1.87,8.58,8.58,0,0,0-1.84,2.74,8.46,8.46,0,0,0-.67,3.38,8.55,8.55,0,0,0,.69,3.46A8.24,8.24,0,0,0,151.54,70a8.59,8.59,0,0,0,2.76,1.81,8.81,8.81,0,0,0,3.38.65,9.91,9.91,0,0,0,3.45-.56A6.8,6.8,0,0,0,163.81,70a1,1,0,0,0,0-1.44,1,1,0,0,0-1.43,0,6.85,6.85,0,0,1-2.13,1.4,6.51,6.51,0,0,1-2.57.51,6.62,6.62,0,0,1-2.35-.43,6.74,6.74,0,0,1-3.47-3,6.41,6.41,0,0,1-.79-2.22l0-.14H165.4a1.14,1.14,0,0,0,.74-.3.82.82,0,0,0,.28-.67,1.28,1.28,0,0,0,0-.19A9.06,9.06,0,0,0,165.64,60.27Zm-14.56,2.46,0-.15a7.17,7.17,0,0,1,.8-2.17,6.75,6.75,0,0,1,1.46-1.73,7.06,7.06,0,0,1,2-1.16,6.56,6.56,0,0,1,2.34-.43,6.47,6.47,0,0,1,2.33.43,7.06,7.06,0,0,1,2,1.16,6.5,6.5,0,0,1,1.48,1.73,6.71,6.71,0,0,1,.82,2.17l0,.15Z"/><polygon class="cls-9" points="151.2 64.87 151.2 64.87 151.2 64.87 151.2 64.87"/><path class="cls-9" d="M56.23,36a.51.51,0,0,1-.15.37.53.53,0,0,1-.38.16,3.06,3.06,0,0,1-1.32-.31,2.92,2.92,0,0,1-.86-.72,3,3,0,0,1-.48-.91,2.89,2.89,0,0,1-.14-.86V25.93a.57.57,0,0,1,.16-.38.52.52,0,0,1,.38-.15.5.5,0,0,1,.37.15.49.49,0,0,1,.16.38v7.76a2.1,2.1,0,0,0,.06.41,1.75,1.75,0,0,0,.78,1.08,1.71,1.71,0,0,0,.9.24.49.49,0,0,1,.38.16A.48.48,0,0,1,56.23,36Z"/><path class="cls-9" d="M64.7,39.07a.49.49,0,0,1-.16.37.53.53,0,0,1-.38.16.52.52,0,0,1-.37-.16.53.53,0,0,1-.16-.38V35.12a4.11,4.11,0,0,1-1.36,1,3.89,3.89,0,0,1-1.71.37A4,4,0,0,1,59,36.16,4.1,4.1,0,0,1,56.77,34a4,4,0,0,1-.33-1.61V28.69a.53.53,0,1,1,1.06,0v3.67a3,3,0,0,0,.24,1.19,3,3,0,0,0,1.63,1.64,3,3,0,0,0,1.19.24,3.09,3.09,0,0,0,1.17-.23,3.26,3.26,0,0,0,1-.63,3.13,3.13,0,0,0,.66-.93,3.19,3.19,0,0,0,.28-1.16V28.7a.57.57,0,0,1,.16-.38.52.52,0,0,1,.38-.15.51.51,0,0,1,.37.15.49.49,0,0,1,.16.38V39.07Z"/><path class="cls-9" d="M71.87,30.13a3.52,3.52,0,0,0-1-.61,2.89,2.89,0,0,0-1.18-.23,3,3,0,0,0-1.19.24,3.11,3.11,0,0,0-1,.65,3.07,3.07,0,0,0-.66,1,3,3,0,0,0-.24,1.2,3,3,0,0,0,.24,1.19,3.13,3.13,0,0,0,.66,1,3.09,3.09,0,0,0,1,.66,3,3,0,0,0,1.19.24,3.11,3.11,0,0,0,1.19-.23,3.34,3.34,0,0,0,1-.64.53.53,0,0,1,.76,0,.48.48,0,0,1,.14.38.59.59,0,0,1-.19.42c-.11.1-.25.22-.42.35a3.48,3.48,0,0,1-.64.37,4,4,0,0,1-.82.28,3.85,3.85,0,0,1-1,.11,4.07,4.07,0,0,1-1.6-.31A4.06,4.06,0,0,1,65.9,34a4,4,0,0,1-.32-1.64,4,4,0,0,1,.32-1.61,4.12,4.12,0,0,1,.87-1.3,4.38,4.38,0,0,1,1.32-.89,4.52,4.52,0,0,1,1.66-.36,3.26,3.26,0,0,1,1,.13,4,4,0,0,1,.78.31,4.56,4.56,0,0,1,.63.38c.18.14.33.26.44.36a.73.73,0,0,1,.18.32.38.38,0,0,1-.11.42.52.52,0,0,1-.38.15A.51.51,0,0,1,71.87,30.13Z"/><path class="cls-9" d="M74.67,32.87a3,3,0,0,0,.36,1,3,3,0,0,0,.68.82,3.1,3.1,0,0,0,3.18.51,3.34,3.34,0,0,0,1-.64.51.51,0,0,1,.38-.16.49.49,0,0,1,.38.16.51.51,0,0,1,.15.37.52.52,0,0,1-.15.38,3.33,3.33,0,0,1-1.28.9,4.87,4.87,0,0,1-1.64.26,4.07,4.07,0,0,1-1.6-.31,4,4,0,0,1-1.31-.86A4.12,4.12,0,0,1,73.9,34a4.21,4.21,0,0,1-.32-1.64,4.1,4.1,0,0,1,1.19-2.91,4.21,4.21,0,0,1,1.32-.89,4.52,4.52,0,0,1,1.66-.36,3.91,3.91,0,0,1,1.55.32,4.54,4.54,0,0,1,1.29.88,4.12,4.12,0,0,1,.9,1.28,4.24,4.24,0,0,1,.36,1.58.47.47,0,0,1-.14.45.6.6,0,0,1-.39.15Zm3-3.57a2.94,2.94,0,0,0-1.07.19,3.29,3.29,0,0,0-.91.53,2.89,2.89,0,0,0-.67.8,3.2,3.2,0,0,0-.37,1h6a3,3,0,0,0-.38-1,2.84,2.84,0,0,0-.67-.79,3.32,3.32,0,0,0-.91-.54A2.94,2.94,0,0,0,77.71,29.3Zm1.63-4.56a.47.47,0,0,1,.41-.08.52.52,0,0,1,.31.25.56.56,0,0,1,.06.4.55.55,0,0,1-.23.34l-2.43,1.42a.56.56,0,0,1-.4.06.52.52,0,0,1-.34-.25.56.56,0,0,1,0-.4.49.49,0,0,1,.22-.32Z"/><path class="cls-9" d="M83.76,32.88a2.75,2.75,0,0,0,.35,1,3.2,3.2,0,0,0,.68.82,3.13,3.13,0,0,0,2,.74A3.11,3.11,0,0,0,88,35.23a3.18,3.18,0,0,0,1-.65.54.54,0,0,1,.38-.15.52.52,0,0,1,.38.15.54.54,0,0,1,.15.38.52.52,0,0,1-.15.38,3.33,3.33,0,0,1-1.28.9,4.82,4.82,0,0,1-1.64.26,4.13,4.13,0,0,1-2.91-1.17A4.12,4.12,0,0,1,83,34a4.21,4.21,0,0,1-.32-1.64,4.1,4.1,0,0,1,1.19-2.91,4.21,4.21,0,0,1,1.32-.89,4.52,4.52,0,0,1,1.66-.36,3.71,3.71,0,0,1,1.55.32,4.54,4.54,0,0,1,1.29.88,4,4,0,0,1,.9,1.28,4.24,4.24,0,0,1,.36,1.58.47.47,0,0,1-.14.45.6.6,0,0,1-.39.15Zm3-3.57a2.94,2.94,0,0,0-1.07.19,3.29,3.29,0,0,0-.91.53,2.89,2.89,0,0,0-.67.8,3.48,3.48,0,0,0-.37,1h6a3.17,3.17,0,0,0-.37-1,3.06,3.06,0,0,0-.68-.79,3.32,3.32,0,0,0-.91-.54A2.9,2.9,0,0,0,86.79,29.31Z"/><path class="cls-9" d="M100,28.24a3.73,3.73,0,0,1,1.75.49,5.74,5.74,0,0,1,1.35,1.07V26a.49.49,0,0,1,.16-.38.48.48,0,0,1,.37-.15.52.52,0,0,1,.38.15.48.48,0,0,1,.15.38v6.39a4,4,0,0,1-.33,1.64,3.86,3.86,0,0,1-.89,1.3,4.18,4.18,0,0,1-1.32.86,4.34,4.34,0,0,1-1.6.31,4.12,4.12,0,0,1-2.93-1.22A4.24,4.24,0,0,1,96.18,34a4,4,0,0,1,0-3.19,4.3,4.3,0,0,1,.9-1.32,4.25,4.25,0,0,1,1.31-.9A3.85,3.85,0,0,1,100,28.24Zm3.1,4.17a3.58,3.58,0,0,0-.29-1.24,3,3,0,0,0-.65-1,3.13,3.13,0,0,0-1-.65,3.11,3.11,0,0,0-2.37,0,3.08,3.08,0,0,0-1.64,1.64,2.9,2.9,0,0,0-.25,1.2,3,3,0,0,0,.24,1.19,3.13,3.13,0,0,0,.66,1,3.07,3.07,0,0,0,1,.66,3,3,0,0,0,1.19.24,3,3,0,0,0,1.2-.24,3.14,3.14,0,0,0,1.63-1.63A3,3,0,0,0,103.07,32.41Z"/><path class="cls-9" d="M106.1,32.91a2.71,2.71,0,0,0,.36,1,3.08,3.08,0,0,0,.67.81,3.13,3.13,0,0,0,2,.74,3.1,3.1,0,0,0,1.18-.23,3.32,3.32,0,0,0,1-.64.52.52,0,0,1,.37-.16.57.57,0,0,1,.38.16.52.52,0,0,1,.15.38.5.5,0,0,1-.15.37,3.16,3.16,0,0,1-1.28.9,4.57,4.57,0,0,1-1.63.27,4.13,4.13,0,0,1-2.92-1.17,4.16,4.16,0,0,1-.89-1.31,4.21,4.21,0,0,1-.32-1.64,4.1,4.1,0,0,1,1.19-2.9,4.37,4.37,0,0,1,1.33-.89,4.24,4.24,0,0,1,1.65-.37,3.72,3.72,0,0,1,1.55.33,4.38,4.38,0,0,1,1.29.87,4.16,4.16,0,0,1,.9,1.29,4.35,4.35,0,0,1,.37,1.57.48.48,0,0,1-.15.45.6.6,0,0,1-.39.15Zm3-3.58a3,3,0,0,0-1.07.19,3.74,3.74,0,0,0-.91.53,3.24,3.24,0,0,0-.67.8,3.48,3.48,0,0,0-.37,1h6a3,3,0,0,0-.37-1,2.92,2.92,0,0,0-.68-.8,3.29,3.29,0,0,0-.91-.53A2.91,2.91,0,0,0,109.13,29.33Z"/><path class="cls-9" d="M114.18,36a.49.49,0,0,1,.16-.38.5.5,0,0,1,.37-.15h3.7a1.18,1.18,0,0,0,.86-.36,1.22,1.22,0,0,0-.85-2.07h-2a2.62,2.62,0,0,1-.93-.19,2.39,2.39,0,0,1-.76-.52,2.51,2.51,0,0,1-.52-.76,2.42,2.42,0,0,1-.18-.94,2.5,2.5,0,0,1,.18-.94,2.43,2.43,0,0,1,.52-.77,2.31,2.31,0,0,1,.76-.51,2.26,2.26,0,0,1,.94-.19h3.49a.57.57,0,0,1,.38.16.52.52,0,0,1,.15.38.51.51,0,0,1-.15.37.49.49,0,0,1-.38.16h-3.49a1.38,1.38,0,0,0-1,.41,1.34,1.34,0,0,0,0,1.89,1.29,1.29,0,0,0,.94.39h2a2,2,0,0,1,.88.18,2.29,2.29,0,0,1,.73.49,2.11,2.11,0,0,1,.48.72,2.27,2.27,0,0,1,0,1.77,2.29,2.29,0,0,1-.49.73,2.32,2.32,0,0,1-.73.48,2.2,2.2,0,0,1-.88.18h-3.7a.51.51,0,0,1-.38-.16A.5.5,0,0,1,114.18,36Z"/><path class="cls-9" d="M130.57,31.07a1.89,1.89,0,0,0-.54-1.26,1.67,1.67,0,0,0-1.21-.49,1.75,1.75,0,0,0-.68.13,1.6,1.6,0,0,0-.54.38,1.72,1.72,0,0,0-.37.55,1.59,1.59,0,0,0-.14.68v5a.54.54,0,0,1-.15.38.52.52,0,0,1-.38.15A.51.51,0,0,1,126,36v-5a2.91,2.91,0,0,1,.21-1.1,2.82,2.82,0,0,1,.59-.89,2.82,2.82,0,0,1,3.29-.5,2.81,2.81,0,0,1,1,.85,3.21,3.21,0,0,1,1-.85,2.87,2.87,0,0,1,2.4-.09A2.81,2.81,0,0,1,136,30a2.74,2.74,0,0,1,.22,1.1v5a.54.54,0,0,1-.15.38.52.52,0,0,1-.38.15.5.5,0,0,1-.37-.15.51.51,0,0,1-.16-.38v-5A1.8,1.8,0,0,0,134,29.46a1.72,1.72,0,0,0-.68-.14,1.67,1.67,0,0,0-.67.14,1.53,1.53,0,0,0-.55.37,1.76,1.76,0,0,0-.37.56,1.56,1.56,0,0,0-.14.68v5a.51.51,0,0,1-.15.37.53.53,0,0,1-.38.16.51.51,0,0,1-.37-.16.49.49,0,0,1-.16-.38Z"/><path class="cls-9" d="M138.15,32.94a3,3,0,0,0,.36,1,3,3,0,0,0,.68.82,3.48,3.48,0,0,0,.92.54,3,3,0,0,0,1.07.19,2.94,2.94,0,0,0,1.19-.23,3,3,0,0,0,1-.64.54.54,0,0,1,.38-.15.52.52,0,0,1,.38.15.56.56,0,0,1,0,.76,3.33,3.33,0,0,1-1.28.9,4.82,4.82,0,0,1-1.64.26,4.07,4.07,0,0,1-1.6-.31,4.06,4.06,0,0,1-2.2-2.16,4.26,4.26,0,0,1-.32-1.65,4.08,4.08,0,0,1,.32-1.6,4,4,0,0,1,.87-1.3,4.21,4.21,0,0,1,1.32-.89,4.74,4.74,0,0,1,1.66-.37,3.72,3.72,0,0,1,1.55.33,4.54,4.54,0,0,1,1.29.88,4,4,0,0,1,.9,1.28,4.2,4.2,0,0,1,.36,1.58.45.45,0,0,1-.14.44.56.56,0,0,1-.39.16Zm3-3.58a3,3,0,0,0-1.07.2,3.29,3.29,0,0,0-.91.53,2.89,2.89,0,0,0-.67.8,3,3,0,0,0-.37,1h6.05a3.17,3.17,0,0,0-.37-1,3.12,3.12,0,0,0-1.59-1.33A2.91,2.91,0,0,0,141.19,29.36Zm1.63-4.55a.47.47,0,0,1,.41-.08.46.46,0,0,1,.31.25.54.54,0,0,1,.06.39.57.57,0,0,1-.23.35l-2.43,1.42a.69.69,0,0,1-.4.06.56.56,0,0,1-.34-.25.58.58,0,0,1,0-.41.53.53,0,0,1,.22-.31Z"/><path class="cls-9" d="M146.25,26a.52.52,0,0,1,.15-.38.54.54,0,0,1,.38-.15.51.51,0,0,1,.53.53v2.19h3.79a.61.61,0,0,1,.43.15.46.46,0,0,1,.16.38.47.47,0,0,1-.16.37.57.57,0,0,1-.43.16h-3.79v3.17a3,3,0,0,0,.24,1.2,3.09,3.09,0,0,0,.66,1,3.13,3.13,0,0,0,1,.66,3,3,0,0,0,1.19.24,2.89,2.89,0,0,0,1.18-.23,2.74,2.74,0,0,0,1-.64.57.57,0,0,1,.35-.18.61.61,0,0,1,.41.11.72.72,0,0,1,.17.35.55.55,0,0,1-.09.39,4.12,4.12,0,0,1-4.59.94,4.07,4.07,0,0,1-2.19-2.2,4,4,0,0,1-.33-1.61Z"/><path class="cls-9" d="M153.82,26.43a.69.69,0,0,1,.21-.5.7.7,0,0,1,.5-.2.68.68,0,0,1,.49.2.69.69,0,0,1,.21.5.67.67,0,0,1-.21.5.66.66,0,0,1-.5.2.68.68,0,0,1-.49-.2A.69.69,0,0,1,153.82,26.43Zm.17,2.38a.55.55,0,0,1,.53-.53.49.49,0,0,1,.38.16.51.51,0,0,1,.15.37v7.25a.54.54,0,0,1-.15.38.52.52,0,0,1-.38.15.5.5,0,0,1-.37-.15.51.51,0,0,1-.16-.38Z"/><path class="cls-9" d="M157,33a3,3,0,0,0,.36,1,3,3,0,0,0,.68.82,3.18,3.18,0,0,0,.91.54,3,3,0,0,0,1.08.19,2.73,2.73,0,0,0,1.18-.23,2.92,2.92,0,0,0,1-.64.52.52,0,0,1,.38-.15.5.5,0,0,1,.37.15.51.51,0,0,1,.16.38.49.49,0,0,1-.16.38,3.23,3.23,0,0,1-1.27.9,4.87,4.87,0,0,1-1.64.26,4.07,4.07,0,0,1-1.6-.31,4.14,4.14,0,0,1-1.31-.86,3.81,3.81,0,0,1-.89-1.3,4.05,4.05,0,0,1-.33-1.65,4.27,4.27,0,0,1,.32-1.6,4.16,4.16,0,0,1,2.2-2.19,4.73,4.73,0,0,1,1.65-.37,3.69,3.69,0,0,1,1.55.33,4.45,4.45,0,0,1,1.3.88,4.14,4.14,0,0,1,.89,1.28,4,4,0,0,1,.37,1.58.5.5,0,0,1-.15.45.57.57,0,0,1-.38.15Zm3-3.58a2.91,2.91,0,0,0-1.07.2,3.29,3.29,0,0,0-.91.53,2.89,2.89,0,0,0-.67.8,3,3,0,0,0-.37,1h6a3.19,3.19,0,0,0-.38-1,3.24,3.24,0,0,0-.67-.8,3.44,3.44,0,0,0-.91-.53A3,3,0,0,0,160,29.38Z"/><path class="cls-9" d="M164.92,32.4a4,4,0,0,1,.32-1.58,4.17,4.17,0,0,1,.87-1.31,4.07,4.07,0,0,1,1.3-.89,4,4,0,0,1,1.57-.34.62.62,0,0,1,.44.15.51.51,0,0,1,.16.38.49.49,0,0,1-.16.38.63.63,0,0,1-.44.15,2.86,2.86,0,0,0-1.16.27,3,3,0,0,0-1.84,2.8v3.66a.53.53,0,0,1-.16.38.52.52,0,0,1-.38.15.51.51,0,0,1-.37-.15.49.49,0,0,1-.16-.38Z"/><path class="cls-9" d="M170.17,36.08a.53.53,0,0,1,.16-.38.52.52,0,0,1,.38-.15h3.7a1.22,1.22,0,0,0,.86-2.07,1.18,1.18,0,0,0-.86-.36h-2a2.41,2.41,0,0,1-.93-.19,2.51,2.51,0,0,1-.76-.52,2.42,2.42,0,0,1-.51-2.64,2.41,2.41,0,0,1,.51-.77,2.46,2.46,0,0,1,1.7-.7h3.49a.55.55,0,0,1,.54.54.52.52,0,0,1-.16.37.49.49,0,0,1-.38.16h-3.49a1.33,1.33,0,0,0-.94.41,1.28,1.28,0,0,0-.4.94,1.3,1.3,0,0,0,.39.95,1.31,1.31,0,0,0,.95.39h2a2.21,2.21,0,0,1,.88.19,2.44,2.44,0,0,1,.73.48,2.29,2.29,0,0,1,.49.73,2.27,2.27,0,0,1,0,1.77A2.46,2.46,0,0,1,176,36a2.44,2.44,0,0,1-.73.48,2.23,2.23,0,0,1-.88.18H170.7a.49.49,0,0,1-.37-.16A.52.52,0,0,1,170.17,36.08Z"/></g></g></svg>